<?xml version="1.0" encoding="UTF-8"?>
<svg width="512" height="512" viewBox="0 0 512 512" xmlns="http://www.w3.org/2000/svg">
  <!-- Cow body -->
  <path d="M256 480c-123.7 0-224-100.3-224-224S132.3 32 256 32s224 100.3 224 224-100.3 224-224 224z" fill="#795548"/>
  
  <!-- Cow spots -->
  <path d="M160 160c0 17.7-14.3 32-32 32s-32-14.3-32-32 14.3-32 32-32 32 14.3 32 32z" fill="#5D4037"/>
  <path d="M416 192c0 17.7-14.3 32-32 32s-32-14.3-32-32 14.3-32 32-32 32 14.3 32 32z" fill="#5D4037"/>
  <path d="M288 288c0 17.7-14.3 32-32 32s-32-14.3-32-32 14.3-32 32-32 32 14.3 32 32z" fill="#5D4037"/>
  
  <!-- Cow face -->
  <circle cx="192" cy="160" r="16" fill="#000"/>
  <circle cx="320" cy="160" r="16" fill="#000"/>
  <path d="M240 224c0 8.8-7.2 16-16 16s-16-7.2-16-16 7.2-16 16-16 16 7.2 16 16z" fill="#000"/>
  <path d="M304 224c0 8.8-7.2 16-16 16s-16-7.2-16-16 7.2-16 16-16 16 7.2 16 16z" fill="#000"/>
  
  <!-- Cow ears -->
  <path d="M160 128c0 17.7-14.3 32-32 32s-32-14.3-32-32 14.3-32 32-32 32 14.3 32 32z" fill="#5D4037"/>
  <path d="M416 128c0 17.7-14.3 32-32 32s-32-14.3-32-32 14.3-32 32-32 32 14.3 32 32z" fill="#5D4037"/>
  
  <!-- Cow horns -->
  <path d="M128 96l-16-32h32l-16 32z" fill="#FFD54F"/>
  <path d="M384 96l-16-32h32l-16 32z" fill="#FFD54F"/>
  
  <!-- Cow nose -->
  <path d="M256 256c-17.7 0-32-14.3-32-32s14.3-32 32-32 32 14.3 32 32-14.3 32-32 32z" fill="#5D4037"/>
</svg>
